<?xml version="1.0" encoding="UTF-8" standalone="no"?>
<!-- Created with Inkscape (http://www.inkscape.org/) -->

<svg
   xmlns:dc="http://purl.org/dc/elements/1.1/"
   xmlns:cc="http://creativecommons.org/ns#"
   xmlns:rdf="http://www.w3.org/1999/02/22-rdf-syntax-ns#"
   xmlns:svg="http://www.w3.org/2000/svg"
   xmlns="http://www.w3.org/2000/svg"
   xmlns:sodipodi="http://sodipodi.sourceforge.net/DTD/sodipodi-0.dtd"
   xmlns:inkscape="http://www.inkscape.org/namespaces/inkscape"
   width="36"
   height="36"
   viewBox="0 0 9.5249998 9.5250003"
   version="1.1"
   id="svg1701"
   inkscape:version="0.92.3 (2405546, 2018-03-11)"
   sodipodi:docname="dw_icon.svg">
  <defs
     id="defs1695" />
  <sodipodi:namedview
     id="base"
     pagecolor="#ffffff"
     bordercolor="#666666"
     borderopacity="1.0"
     inkscape:pageopacity="0.0"
     inkscape:pageshadow="2"
     inkscape:zoom="23.611112"
     inkscape:cx="18"
     inkscape:cy="17.999987"
     inkscape:document-units="mm"
     inkscape:current-layer="layer1"
     showgrid="false"
     units="px"
     inkscape:window-width="1920"
     inkscape:window-height="1017"
     inkscape:window-x="-8"
     inkscape:window-y="-8"
     inkscape:window-maximized="1" />
  <metadata
     id="metadata1698">
    <rdf:RDF>
      <cc:Work
         rdf:about="">
        <dc:format>image/svg+xml</dc:format>
        <dc:type
           rdf:resource="http://purl.org/dc/dcmitype/StillImage" />
        <dc:title></dc:title>
      </cc:Work>
    </rdf:RDF>
  </metadata>
  <g
     inkscape:label="Camada 1"
     inkscape:groupmode="layer"
     id="layer1"
     transform="translate(0,-287.47498)">
    <g
       transform="matrix(0.03175,0,0,0.03175,-24.245036,287.75772)"
       id="g4314"
       inkscape:export-xdpi="90"
       inkscape:export-ydpi="90">
      <rect
         ry="55.032707"
         y="-8.9000406"
         x="763.62823"
         height="299.9899"
         width="299.9899"
         id="rect4293"
         style="opacity:1;fill:#ff8000;fill-opacity:1;stroke:#ffff00;stroke-width:0.01009581;stroke-linecap:round;stroke-linejoin:round;stroke-miterlimit:4;stroke-dasharray:none;stroke-dashoffset:0;stroke-opacity:1" />
      <g
         id="g4295"
         style="fill:#ffffff"
         transform="translate(728.1821,-42.363417)">
        <g
           id="g4297"
           style="font-style:normal;font-variant:normal;font-weight:900;font-stretch:normal;font-size:303.03030396px;line-height:0%;font-family:Optien;-inkscape-font-specification:'Optien Heavy';text-align:center;letter-spacing:0px;word-spacing:0px;text-anchor:middle;fill:#ffffff;fill-opacity:1;stroke:none;stroke-width:1px;stroke-linecap:butt;stroke-linejoin:miter;stroke-opacity:1">
          <path
             inkscape:connector-curvature="0"
             id="path4299"
             d="m 174.98651,88.003781 q 19.69697,0 36.9697,7.575757 17.57575,7.575762 30.30303,20.606062 13.0303,12.72727 20.60606,30.30303 7.57576,17.27273 7.57576,36.9697 0,19.69697 -7.57576,36.96969 -7.27273,17.27273 -20.30303,30.30303 -12.72728,13.03031 -30,20.60606 -17.27273,7.57576 -36.9697,7.57576 h -55.15152 v -38.48485 h 54.84849 q 11.81818,0 22.12121,-4.54545 10.30303,-4.54546 17.87879,-12.12121 7.87879,-7.87879 12.42424,-18.18182 4.54546,-10.30303 4.54546,-22.12121 0,-11.81819 -4.54546,-22.12122 -4.54545,-10.30303 -12.42424,-17.87878 -7.57576,-7.87879 -17.87879,-12.42425 -10.30303,-4.54545 -22.12121,-4.54545 H 120.44105 V 88.003781 Z"
             style="fill:#ffffff" />
        </g>
        <g
           id="g4301"
           style="font-style:normal;font-variant:normal;font-weight:900;font-stretch:normal;font-size:124.77765656px;line-height:0%;font-family:Optien;-inkscape-font-specification:'Optien Heavy';text-align:center;letter-spacing:0px;word-spacing:0px;text-anchor:middle;fill:#ffffff;fill-opacity:1;stroke:none;stroke-width:1px;stroke-linecap:butt;stroke-linejoin:miter;stroke-opacity:1">
          <path
             inkscape:connector-curvature="0"
             id="path4303"
             d="m 187.82098,144.15335 h 15.97154 v 54.02873 q 0,5.11588 -1.99644,9.60788 -1.99644,4.49199 -5.36544,7.86099 -3.36899,3.24422 -7.86099,5.24066 -4.492,1.87167 -9.60788,1.87167 -4.86633,0 -9.23355,-1.74689 -4.24244,-1.74689 -7.61143,-4.86633 -3.24422,3.11944 -7.61144,4.86633 -4.36722,1.74689 -9.23355,1.74689 -5.11588,0 -9.60788,-1.87167 -4.49199,-1.99644 -7.86099,-5.24066 -3.369,-3.369 -5.36544,-7.86099 -1.99644,-4.492 -1.99644,-9.60788 v -54.02873 h 15.97154 v 55.02695 q 0.49911,3.24422 2.99466,5.49021 2.49556,2.246 5.86455,2.246 3.49378,0 5.98933,-2.246 2.49555,-2.37077 2.86989,-5.73977 v -54.77739 h 15.97154 v 53.90395 q 0.12477,3.61855 2.62033,6.23888 2.62033,2.62033 6.36366,2.62033 3.24422,0 5.61499,-2.12122 2.49556,-2.12122 3.11944,-5.36544 z"
             style="fill:#ffffff" />
        </g>
      </g>
    </g>
  </g>
</svg>
