<?xml version="1.0" encoding="UTF-8" standalone="no"?>
<!-- Generator: Adobe Illustrator 19.0.0, SVG Export Plug-In . SVG Version: 6.00 Build 0)  -->

<svg
   xmlns:dc="http://purl.org/dc/elements/1.1/"
   xmlns:cc="http://creativecommons.org/ns#"
   xmlns:rdf="http://www.w3.org/1999/02/22-rdf-syntax-ns#"
   xmlns:svg="http://www.w3.org/2000/svg"
   xmlns="http://www.w3.org/2000/svg"
   xmlns:sodipodi="http://sodipodi.sourceforge.net/DTD/sodipodi-0.dtd"
   xmlns:inkscape="http://www.inkscape.org/namespaces/inkscape"
   version="1.1"
   id="Capa_1"
   x="0px"
   y="0px"
   viewBox="0 0 490.2 490.2"
   style="enable-background:new 0 0 490.2 490.2;"
   xml:space="preserve"
   sodipodi:docname="unlike.svg"
   inkscape:version="0.92.3 (2405546, 2018-03-11)"><metadata
   id="metadata41"><rdf:RDF><cc:Work
       rdf:about=""><dc:format>image/svg+xml</dc:format><dc:type
         rdf:resource="http://purl.org/dc/dcmitype/StillImage" /><dc:title></dc:title></cc:Work></rdf:RDF></metadata><defs
   id="defs39" /><sodipodi:namedview
   pagecolor="#ffffff"
   bordercolor="#666666"
   borderopacity="1"
   objecttolerance="10"
   gridtolerance="10"
   guidetolerance="10"
   inkscape:pageopacity="0"
   inkscape:pageshadow="2"
   inkscape:window-width="1920"
   inkscape:window-height="1017"
   id="namedview37"
   showgrid="false"
   inkscape:zoom="0.48143614"
   inkscape:cx="245.10001"
   inkscape:cy="138.77431"
   inkscape:window-x="-8"
   inkscape:window-y="-8"
   inkscape:window-maximized="1"
   inkscape:current-layer="Capa_1" />
<g
   id="g4"
   transform="matrix(1,0,0,-1,0,490.20098)">
	<path
   d="m 490.1,234.464 c 0,-37.6 -30.6,-68.3 -68.3,-68.3 H 316.2 v -76.1 c 0,-32.2 -9.4,-55.4 -28,-69 -29.4,-21.6 -69.8,-9.3 -71.5,-8.7 -5.1,1.6 -8.6,6.3 -8.6,11.7 v 85.5 c 0,67.3 -78.1,90.2 -81.4,91.2 -1,0.3 -1.9,0.6 -2.7,1.1 -5.8,-11.6 -17.8,-19.6 -31.6,-19.6 H 35.2 c -19.4,0 -35.2,15.8 -35.2,35.2 v 207.9 c 0,19.4 15.8,35.2 35.2,35.2 h 33.1 c 6.8,0 12.3,-5.5 12.3,-12.3 0,-6.8 -5.6,-12.2 -12.3,-12.2 H 35.2 c -5.9,0 -10.7,-4.8 -10.7,-10.7 v -207.9 c 0,-5.9 4.8,-10.7 10.7,-10.7 h 57.3 c 5.9,0 10.7,4.8 10.7,10.7 v 196.1 c 0,37.6 30.6,68.3 68.3,68.3 h 209.2 c 46.4,0 75.9,-24.3 81.1,-66.3 l 28.2,-177 c 0.1,-0.6 0.2,-1.3 0.2,-1.9 v -2.2 h -0.1 z m -24.5,1.1 -28.1,176.5 c -3.7,30 -22.8,45.3 -56.8,45.3 h -7.8 -201.4 c -24.1,0 -43.8,-19.6 -43.8,-43.8 v -189.1 c 1.8,0.4 3.7,0.3 5.6,-0.2 4.1,-1.1 99.3,-28.7 99.3,-114.8 v -75.6 c 10.4,-1.6 28.2,-2.5 41.1,6.9 11.9,8.8 18,25.3 18,49.3 v 88.4 c 0,6.8 5.5,12.3 12.3,12.3 h 117.9 c 24.1,0 43.8,19.6 43.8,43.8 v 1 h -0.1 z"
   id="path2"
   inkscape:connector-curvature="0" />
</g>
<g
   id="g6">
</g>
<g
   id="g8">
</g>
<g
   id="g10">
</g>
<g
   id="g12">
</g>
<g
   id="g14">
</g>
<g
   id="g16">
</g>
<g
   id="g18">
</g>
<g
   id="g20">
</g>
<g
   id="g22">
</g>
<g
   id="g24">
</g>
<g
   id="g26">
</g>
<g
   id="g28">
</g>
<g
   id="g30">
</g>
<g
   id="g32">
</g>
<g
   id="g34">
</g>
</svg>