<?xml version="1.0" encoding="iso-8859-1"?>
<!-- Generator: Adobe Illustrator 19.0.0, SVG Export Plug-In . SVG Version: 6.00 Build 0)  -->
<svg version="1.1" id="Capa_1" xmlns="http://www.w3.org/2000/svg" xmlns:xlink="http://www.w3.org/1999/xlink" x="0px" y="0px"
	 viewBox="0 0 512 512" style="enable-background:new 0 0 512 512;" xml:space="preserve">
<g>
	<g>
		<path d="M495.882,418.026l-119.28-119.28c16.169-28.944,25.403-62.267,25.403-97.71c0-110.834-90.17-201.003-201.004-201.003
			S0,90.203,0,201.037s90.169,201.003,201.003,201.003c35.48,0,68.833-9.252,97.797-25.452l119.261,119.261
			c10.392,10.394,24.211,16.118,38.91,16.118s28.518-5.725,38.91-16.118C506.276,485.455,512,471.636,512,456.937
			S506.276,428.42,495.882,418.026z M201.003,372.041c-94.292,0-171.005-76.713-171.005-171.005S106.711,30.032,201.003,30.032
			c94.293,0,171.006,76.713,171.006,171.005S295.295,372.041,201.003,372.041z M345.643,381.008l-21.341-21.341
			c13.21-10.291,25.105-22.193,35.39-35.408l21.343,21.343C370.537,358.655,358.692,370.505,345.643,381.008z M474.67,474.638
			c-4.728,4.728-11.013,7.331-17.699,7.331c-6.686,0-12.972-2.604-17.699-7.331l-72.308-72.308
			c12.908-10.653,24.743-22.492,35.392-35.406l72.314,72.314C484.43,448.998,484.43,464.877,474.67,474.638z"/>
	</g>
</g>
<g>
	<g>
		<path d="M208.447,186.038h-14.889c-13.902,0-25.212-11.31-25.212-25.212s11.31-25.212,25.212-25.212h14.889
			c13.902,0,25.212,11.31,25.212,25.212h29.998c0-27.879-20.776-50.985-47.656-54.68V75.581h-29.998v30.564
			c-26.88,3.697-47.655,26.801-47.655,54.68c0,30.443,24.767,55.21,55.21,55.21h14.889c13.902,0,25.212,11.31,25.212,25.212
			s-11.31,25.212-25.212,25.212h-14.889c-13.902,0-25.212-11.31-25.212-25.212h-29.998c0,27.879,20.776,50.984,47.655,54.68v30.564
			h29.998v-30.564c26.88-3.696,47.656-26.801,47.656-54.68C263.657,210.805,238.89,186.038,208.447,186.038z"/>
	</g>
</g>
<g>
</g>
<g>
</g>
<g>
</g>
<g>
</g>
<g>
</g>
<g>
</g>
<g>
</g>
<g>
</g>
<g>
</g>
<g>
</g>
<g>
</g>
<g>
</g>
<g>
</g>
<g>
</g>
<g>
</g>
</svg>
